<svg xmlns="http://www.w3.org/2000/svg" xmlns:xlink="http://www.w3.org/1999/xlink" width="253" height="253" viewBox="0 0 253 253" fill="none">
<g  clip-path="url(#clip-path-s7YUyohOF0RmLPXs1hlsd)">
<path   fill-rule="evenodd"  fill="#005B94"  d="M120.304 201.056L120.304 199.859C120.797 199.719 121.217 199.369 121.497 198.809C121.777 198.101 121.991 197.052 122.061 195.648C121.847 196.064 121.571 196.492 121.217 196.698C120.938 196.908 120.658 196.978 120.304 197.052L120.304 195.928C120.797 195.928 121.217 195.718 121.497 195.368C121.777 195.014 121.921 194.52 121.921 193.953C121.921 192.981 121.777 192.277 121.497 191.85C121.217 191.433 120.797 191.22 120.304 191.154L120.304 190.03C121.291 190.03 122.061 190.446 122.621 191.297C123.254 192.133 123.534 193.467 123.534 195.368C123.534 197.122 123.254 198.451 122.621 199.508C122.061 200.426 121.291 200.982 120.304 201.056ZM131.193 200.916L124.868 200.916L124.868 199.929C125.082 199.225 125.428 198.661 125.922 198.032C126.345 197.472 126.979 196.842 127.823 196.134C128.383 195.578 128.802 195.085 129.086 194.591C129.366 194.171 129.506 193.677 129.506 193.121C129.506 192.557 129.366 192.134 129.149 191.784C128.946 191.36 128.593 191.22 128.033 191.22C127.675 191.22 127.329 191.434 127.041 191.784C126.695 192.134 126.551 192.837 126.551 193.817L125.082 193.817C125.152 192.557 125.428 191.64 125.922 191.014C126.485 190.31 127.255 190.03 128.103 190.03C129.086 190.03 129.786 190.31 130.272 190.874C130.765 191.434 131.05 192.203 131.05 193.187C131.05 193.953 130.766 194.661 130.35 195.224C129.86 195.854 129.296 196.414 128.662 197.052C127.959 197.681 127.395 198.171 127.115 198.525C126.839 198.879 126.551 199.299 126.275 199.719L131.193 199.719L131.193 200.916L131.193 200.916ZM138.848 197.895C138.848 198.879 138.564 199.649 137.931 200.212C137.375 200.772 136.597 201.056 135.614 201.056C134.7 201.056 133.93 200.772 133.367 200.212C132.737 199.649 132.453 198.735 132.453 197.611L133.86 197.611C133.86 198.385 134.07 198.949 134.35 199.299C134.7 199.719 135.128 199.859 135.614 199.859C136.181 199.859 136.598 199.719 136.881 199.369C137.231 199.019 137.375 198.525 137.375 197.751C137.375 197.191 137.161 196.698 136.881 196.414C136.528 196.064 136.038 195.854 135.19 195.854L135.19 194.804C135.898 194.804 136.388 194.66 136.668 194.311C137.025 193.953 137.161 193.467 137.161 192.771C137.161 192.277 137.025 191.85 136.811 191.57C136.598 191.297 136.248 191.153 135.688 191.153C135.19 191.153 134.844 191.359 134.56 191.709C134.284 192.063 134.144 192.557 134.07 193.26L132.667 193.26C132.737 192.277 133.087 191.503 133.577 190.873C134.144 190.31 134.844 190.03 135.688 190.03C136.667 190.03 137.375 190.31 137.865 190.8C138.355 191.359 138.635 191.997 138.635 192.693C138.635 193.467 138.495 194.03 138.207 194.38C138.005 194.804 137.577 195.084 136.947 195.298C137.577 195.434 138.005 195.718 138.355 196.207C138.701 196.697 138.849 197.261 138.849 197.895M113.628 200.916L112.155 200.916L112.155 192.557L110.265 192.557L110.265 191.784C111.035 191.784 111.595 191.64 112.019 191.36C112.438 191.014 112.718 190.586 112.862 190.03L113.628 190.03L113.628 200.916L113.628 200.916ZM120.304 190.03L120.304 191.154L120.168 191.154C119.814 191.154 119.46 191.36 119.184 191.71C118.904 192.064 118.76 192.693 118.76 193.677C118.76 194.38 118.83 194.941 119.044 195.368C119.324 195.718 119.674 195.928 120.168 195.928L120.304 195.928L120.304 197.052L119.954 197.052C119.102 197.052 118.48 196.772 117.987 196.208C117.493 195.648 117.213 194.805 117.213 193.677C117.213 192.557 117.493 191.71 117.987 191.014C118.48 190.38 119.246 190.03 120.234 190.03L120.304 190.03ZM120.304 199.859L120.304 201.056L119.954 201.056C119.184 201.056 118.55 200.772 118.057 200.212C117.563 199.579 117.353 198.949 117.353 198.245L118.761 198.245C118.761 198.661 118.904 199.019 119.103 199.369C119.394 199.719 119.674 199.859 120.024 199.859L120.304 199.859L120.304 199.859Z">
</path>
<path d="M103.075 96.8635L102.573 110.168L101.554 110.133L102.056 96.8286L103.075 96.8635Z"   fill="#2E724E" >
</path>
<path d="M102.064 109.641C102.115 109.641 121.278 109.392 126.6 109.556C131.856 109.641 150.152 109.808 150.207 109.808L150.195 110.827C150.144 110.827 131.81 110.66 126.585 110.574L126.577 110.574C121.266 110.407 102.127 110.66 102.068 110.66L102.065 109.641L102.064 109.641Z"   fill="#2E724E" >
</path>
<rect x="149.44085693359375" y="97.10421752929688" width="1.0187810308482015" height="13.220933224639658" transform="rotate(-1.0788171477762354 149.44085693359375 97.10421752929688)"   fill="#2E724E" >
</rect>
<path d="M107.638 96.7687L107.304 109.979L114.208 109.979L114.531 96.8504L114.037 94.6848L108.214 94.7625L107.638 96.7687Z" fill-rule="evenodd"  fill="#2E724E" >
</path>
<path d="M119.693 96.6832L119.44 109.98L132.079 109.898L132.079 96.5978L131.157 94.5216L120.524 94.4398L119.693 96.6832Z" fill-rule="evenodd"  fill="#2E724E" >
</path>
<path d="M137.396 96.7687L137.396 109.979L144.628 109.979L144.464 96.8504L143.632 94.7625L137.979 94.6848L137.396 96.7687Z" fill-rule="evenodd"  fill="#2E724E" >
</path>
<path d="M92.0033 98.1753C92.4194 96.0991 98.0758 95.104 98.7368 98.0936C98.6551 100.671 98.4956 103.249 98.4956 103.249L91.8398 103.498C91.9176 101.748 92.0033 99.9249 92.0033 98.1753Z" fill-rule="evenodd"  fill="#2E724E" >
</path>
<path   fill-rule="evenodd"  fill="#2E724E"  d="M160.009 98.2589C159.597 96.2645 153.94 95.2654 153.279 98.1735C153.361 100.837 153.528 103.333 153.528 103.333L160.176 103.582C160.095 101.832 160.009 100.009 160.009 98.2592">
</path>
<path d="M82.364 98.6745C82.776 96.684 88.1798 95.7664 88.8448 98.5891C88.7594 101.167 88.6816 103.667 88.6816 103.667L82.1968 103.83C82.2822 102.17 82.2822 100.424 82.364 98.6745Z" fill-rule="evenodd"  fill="#2E724E" >
</path>
<path   fill-rule="evenodd"  fill="#2E724E"  d="M169.652 98.8417C169.236 96.8472 163.836 95.8481 163.175 98.7562C163.253 101.252 163.335 103.748 163.335 103.748L169.82 103.997C169.738 102.252 169.738 100.502 169.652 98.842">
</path>
<path   fill-rule="evenodd"  fill="#2E724E"  d="M70.9776 99.2594C71.6386 97.0977 76.4594 96.3475 77.1241 99.1739C77.0424 101.67 76.9607 104.162 76.9607 104.162L70.7247 104.492C70.7247 102.747 70.9774 101.005 70.9774 99.2594">
</path>
<path   fill-rule="evenodd"  fill="#2E724E"  d="M181.046 99.3408C180.373 97.2646 175.56 96.429 174.891 99.2591C174.977 101.833 175.059 104.333 175.059 104.333L181.295 104.578C181.295 102.832 181.046 101.083 181.046 99.3408">
</path>
<path d="M62.0785 100.009C62.7432 97.9254 67.568 97.0975 67.9801 99.9276C67.8946 102.338 67.8129 104.745 67.8129 104.745L61.7441 104.997C61.8296 103.33 61.9891 101.669 62.0785 100.009Z" fill-rule="evenodd"  fill="#2E724E" >
</path>
<path   fill-rule="evenodd"  fill="#2E724E"  d="M189.942 100.089C189.273 98.009 184.452 97.1771 184.032 100.007C184.121 102.503 184.199 104.828 184.199 104.828L190.272 105.158C190.19 103.498 190.023 101.749 189.942 100.089">
</path>
<path   fill-rule="evenodd"  fill="#2E724E"  d="M54.0945 99.0086C55.6728 97.9278 57.3406 99.5064 57.6713 100.591C57.5895 102.994 57.5081 105.408 57.5081 105.408L53.5115 105.661C53.5969 103.997 54.013 100.669 54.0947 99.0086">
</path>
<path d="M197.923 99.0922C196.344 98.0076 194.68 99.59 194.346 100.671C194.431 103.081 194.513 105.495 194.513 105.495L198.498 105.826C198.424 104.162 198.004 100.756 197.923 99.0922Z" fill-rule="evenodd"  fill="#2E724E" >
</path>
<path d="M92.1705 106.492L97.9904 106.492C98.2353 106.492 98.4102 106.659 98.4102 106.822L98.4102 112.81C98.4102 112.977 98.2353 113.144 97.9904 113.144L92.1705 113.144C91.9179 113.144 91.7584 112.977 91.7584 112.81L91.7584 106.822C91.7584 106.659 91.9179 106.492 92.1705 106.492Z" fill-rule="evenodd"  fill="#2E724E" >
</path>
<path d="M159.846 106.575L154.022 106.575C153.777 106.575 153.61 106.743 153.61 106.992L153.61 112.893C153.61 113.06 153.777 113.228 154.022 113.228L159.846 113.228C160.094 113.228 160.262 113.06 160.262 112.893L160.262 106.992C160.262 106.743 160.094 106.575 159.846 106.575Z" fill-rule="evenodd"  fill="#2E724E" >
</path>
<path   fill-rule="evenodd"  fill="#2E724E"  d="M82.197 106.906L88.0948 106.824C88.262 106.824 88.4292 106.991 88.4292 107.236L88.4292 113.142C88.4292 113.309 88.262 113.472 88.0948 113.472L82.197 113.472C82.0335 113.472 81.8586 113.309 81.8586 113.142L81.8586 107.236C81.8586 106.991 82.0335 106.906 82.197 106.906">
</path>
<path d="M169.82 106.989L163.914 106.989C163.751 106.989 163.584 107.153 163.584 107.32L163.584 113.225C163.584 113.474 163.751 113.642 163.914 113.642L169.82 113.642C169.987 113.642 170.154 113.474 170.154 113.307L170.154 107.32C170.154 107.153 169.987 106.989 169.82 106.989Z" fill-rule="evenodd"  fill="#2E724E" >
</path>
<path   fill-rule="evenodd"  fill="#2E724E"  d="M70.8866 107.489L76.3761 107.321C76.6287 107.321 76.7959 107.489 76.7959 107.656L76.6287 113.472C76.6287 113.724 76.4615 113.81 76.2943 113.891L70.8866 114.14C70.6377 114.14 70.5599 113.973 70.5599 113.724L70.5599 107.823C70.5599 107.655 70.6377 107.488 70.8866 107.488">
</path>
<path   fill-rule="evenodd"  fill="#2E724E"  d="M181.126 107.572L175.64 107.405C175.391 107.405 175.224 107.572 175.224 107.739L175.391 113.641C175.391 113.808 175.559 113.972 175.722 113.972L181.126 114.224C181.375 114.224 181.46 114.057 181.46 113.89L181.46 107.903C181.46 107.74 181.375 107.572 181.126 107.572">
</path>
<path   fill-rule="evenodd"  fill="#2E724E"  d="M61.7442 108.155L67.1482 107.739C67.3154 107.739 67.4826 107.902 67.4826 108.069L67.3154 113.812C67.3154 114.057 67.1482 114.138 66.8993 114.224L61.577 114.469C61.1649 114.554 61.2426 114.387 61.2426 114.138L61.3321 108.485C61.3321 108.322 61.4953 108.155 61.7442 108.155">
</path>
<path d="M190.272 108.239L184.868 107.904C184.701 107.904 184.534 108.072 184.534 108.239L184.701 113.973C184.701 114.14 184.868 114.308 185.113 114.308L190.439 114.638C190.851 114.638 190.77 114.471 190.77 114.308L190.684 108.655C190.684 108.402 190.521 108.32 190.272 108.239Z" fill-rule="evenodd"  fill="#2E724E" >
</path>
<path d="M53.2627 108.567L57.0067 108.322C57.1739 108.322 57.3411 108.485 57.3411 108.656L57.1739 114.305C57.0884 114.554 57.0067 114.64 56.7541 114.64L53.0101 114.884C52.5203 114.884 52.6018 114.721 52.6018 114.472L52.9284 108.905C52.9284 108.734 53.0996 108.567 53.2627 108.567Z" fill-rule="evenodd"  fill="#2E724E" >
</path>
<path   fill-rule="evenodd"  fill="#2E724E"  d="M198.75 108.736L195.006 108.401C194.843 108.401 194.68 108.569 194.68 108.736L194.843 114.47C194.932 114.637 195.006 114.805 195.259 114.805L198.999 114.972C199.501 114.972 199.415 114.805 199.415 114.637L199.085 109.066C199.085 108.907 198.914 108.735 198.75 108.735">
</path>
<path d="M52.1844 116.551L52.017 125.116L71.7201 124.863L75.2969 118.46L95.0041 117.799L96.7456 114.969L52.1844 116.551Z" fill-rule="evenodd"  fill="#2E724E" >
</path>
<path d="M199.335 116.802L199.502 125.281L179.799 125.032L176.226 118.629L156.515 118.046L154.773 115.138L199.335 116.802Z" fill-rule="evenodd"  fill="#2E724E" >
</path>
<path d="M76.8779 120.044L71.8042 128.524L109.71 128.104L111.541 119.376L76.8779 120.044Z" fill-rule="evenodd"  fill="#2E724E" >
</path>
<path d="M174.725 120.291L179.798 128.771L141.889 128.44L139.646 119.459L174.725 120.291Z" fill-rule="evenodd"  fill="#2E724E" >
</path>
<path   fill-rule="evenodd"  fill="#2E724E"  d="M99.3233 92.522C99.3233 92.522 77.9561 93.6846 73.804 94.1044C69.5585 94.5205 54.3458 96.6819 54.3458 96.6819L54.264 98.0076C54.264 98.0076 70.9777 95.846 75.2152 95.5196C79.5384 95.1852 98.6543 93.8555 99.1559 93.8555C99.2413 92.8564 99.3231 92.522 99.3231 92.522">
</path>
<path   fill-rule="evenodd"  fill="#2E724E"  d="M152.864 92.7744C152.864 92.7744 174.561 94.0224 178.795 94.4385C182.955 94.8506 198.172 97.098 198.172 97.098L198.257 98.4274C198.257 98.4274 181.625 96.1803 177.298 95.85C172.983 95.5196 153.528 94.1859 153.023 94.1859C152.526 94.1859 152.864 92.7747 152.864 92.7747">
</path>
<path   fill-rule="evenodd"  fill="#2E724E"  d="M101.321 90.5268L101.072 91.6893C101.072 91.6893 123.43 91.359 125.673 91.4444C128.337 91.5261 149.785 92.0277 149.785 92.0277L149.618 90.6942C149.618 90.6942 126.509 90.2781 124.76 90.2781C123.014 90.1964 101.321 90.527 101.321 90.527">
</path>
<rect x="111.5390625" y="119.29241943359375" width="28.353370666503906" height="0.9173736572265625"   fill="#2E724E" >
</rect>
<rect x="111.208740234375" y="122.45318603515625" width="29.018089294433594" height="0.9136428833007812"   fill="#2E724E" >
</rect>
<path d="M110.88 126.111L140.972 126.111C141.139 126.111 141.221 126.193 141.221 126.36L141.221 126.776C141.221 126.862 141.139 127.025 140.972 127.025L110.88 127.025C110.713 127.025 110.628 126.862 110.628 126.776L110.628 126.36C110.628 126.193 110.713 126.111 110.88 126.111Z" fill-rule="evenodd"  fill="#2E724E" >
</path>
<rect x="110.0501708984375" y="130.0189208984375" width="31.339149475097656" height="0.8319091796875"   fill="#2E724E" >
</rect>
<rect x="108.0517578125" y="135.00698852539062" width="35.33575439453125" height="0.909912109375"   fill="#2E724E" >
</rect>
<rect x="104.311767578125" y="138.9998779296875" width="42.399864196777344" height="1.0768280029296875"   fill="#2E724E" >
</rect>
<rect x="103.475830078125" y="143.57183837890625" width="43.982208251953125" height="1.0808258056640625"   fill="#2E724E" >
</rect>
<rect x="101.5709228515625" y="148.80877685546875" width="47.80016326904297" height="1.0808258056640625"   fill="#2E724E" >
</rect>
<rect x="99.1566162109375" y="154.539306640625" width="52.290306091308594" height="1.333465576171875"   fill="#2E724E" >
</rect>
<rect x="95.9996337890625" y="160.61212158203125" width="58.607994079589844" height="1.7455596923828125"   fill="#2E724E" >
</rect>
<path d="M88.5146 172.169L123.85 172.581L162.164 172.251L162.25 173.915L124.426 174.413L88.5146 174L88.5146 172.169Z" fill-rule="evenodd"  fill="#2E724E" >
</path>
<path d="M83.9396 177.989L123.35 178.818L166.492 178.235L166.578 179.984L123.933 180.731L83.9396 179.899L83.9396 177.989Z" fill-rule="evenodd"  fill="#2E724E" >
</path>
<path d="M79.1178 184.303L123.1 185.384L171.483 184.393L171.651 186.216L123.765 187.468L78.9546 186.387L79.1178 184.303Z" fill-rule="evenodd"  fill="#2E724E" >
</path>
<path d="M92.2543 166.349L124.017 166.761L158.346 166.43L158.513 168.098L124.515 168.596L92.1726 168.18L92.2543 166.349Z" fill-rule="evenodd"  fill="#2E724E" >
</path>
<path d="M101.655 91.6904L99.82 92.7752L99.7423 94.0232L99.9055 94.1867C102.316 94.1867 123.434 93.7669 125.347 93.7669C127.174 93.7669 148.872 94.2721 152.114 94.3539L152.278 93.6852L152.029 93.1099L149.537 91.9433L149.537 90.6953L152.608 92.1922L152.865 92.2777L152.942 92.5226L153.277 93.5217L153.277 93.8561L152.942 95.0146L152.865 95.4344L152.445 95.4344C152.363 95.4344 127.256 94.8474 125.347 94.8474C123.271 94.8474 99.7423 95.2673 99.6528 95.2673L99.4079 95.2673L99.2407 95.0146L98.7392 94.5211L98.6575 94.3539L98.6575 94.105L98.8209 92.3554L98.8209 92.1065L99.0736 91.9431L101.406 90.6136L101.655 91.6904Z" fill-rule="evenodd"  fill="#2E724E" >
</path>
<path d="M102.114 94.6366L102.888 96.3316L126.335 95.9197L126.346 95.9197L149.385 96.5767L150.24 94.8L151.162 95.2393L150.159 97.3192L150.015 97.6147L149.685 97.603L126.335 96.9382L102.573 97.3541L102.238 97.3621L102.102 97.0588L101.189 95.0604L102.114 94.6366Z"   fill="#2E724E" >
</path>
<path d="M96.6583 119.793L101.654 111.894L101.817 111.645L102.152 111.645L125.673 111.396L149.862 111.894L150.115 111.894L150.282 112.142L155.523 119.961L154.275 119.875L149.54 112.893L125.673 112.395L102.397 112.725L97.91 119.793L96.6583 119.793Z" fill-rule="evenodd"  fill="#2E724E" >
</path>
<path   fill-rule="evenodd"  fill="#2E724E"  d="M79.0382 186.137L78.0429 186.056L77.9574 178.735C77.9574 178.568 89.3445 166.434 92.0856 162.441C93.6717 160.116 103.982 142.321 104.06 138.084C104.06 136.918 103.395 137.167 103.15 136.918C102.975 136.587 103.069 136.089 103.069 136.004C103.069 135.837 106.719 135.257 107.722 133.757C108.799 132.264 110.296 125.449 110.296 125.449C110.378 127.688 109.635 131.766 108.134 134.593L104.806 138.5C104.721 138.5 99.3246 154.541 98.1584 156.12C97.4119 157.706 85.107 177.491 79.54 183.552C78.4592 184.722 79.0385 186.137 79.0385 186.137">
</path>
<path   fill-rule="evenodd"  fill="#2E724E"  d="M171.566 186.137L172.569 186.056L172.569 178.735C172.569 178.568 161.17 166.434 158.515 162.441C156.851 160.116 146.63 142.321 146.541 138.084C146.459 136.918 147.031 137.66 147.275 137.415C147.532 137.085 147.536 136.089 147.536 136.004C147.536 135.837 144.465 135.176 143.388 133.675C142.385 132.097 141.218 125.118 141.218 125.118C141.141 127.28 141.055 131.681 142.552 134.507L145.713 138.5C145.794 138.5 151.202 154.541 152.361 156.119C153.107 157.706 165.964 178.33 171.535 184.396C172.615 185.562 171.566 186.137 171.566 186.137">
</path>
<path d="M111.708 113.973L110.88 119.292L111.626 119.292L112.291 113.892L111.708 113.973Z" fill-rule="evenodd"  fill="#2E724E" >
</path>
<path d="M139.31 114.057L140.052 119.294L139.31 119.375L138.73 113.975L139.31 114.057Z" fill-rule="evenodd"  fill="#2E724E" >
</path>
<path d="M77.6219 186.467L74.5467 185.056L74.1346 184.803L74.0529 184.395L73.7185 178.649L73.7185 178.319L73.9711 178.07C74.0529 178.07 88.0954 164.769 90.8402 161.196C92.0025 159.696 93.6706 157.285 95.2449 154.711C97.2434 151.383 99.2415 147.978 99.9062 146.559C100.653 145.07 101.321 143.569 101.901 141.99C102.484 140.493 102.978 138.833 103.149 136.917L104.638 137.084C104.478 139.164 103.981 140.91 103.394 142.573C102.729 144.233 102.064 145.73 101.321 147.223C100.653 148.638 98.6543 152.133 96.4929 155.539C95.004 158.116 93.34 160.612 92.0882 162.187C89.5145 165.519 77.2953 177.155 75.2971 178.986L75.6238 183.807L78.2829 185.133L77.6222 186.467L77.6219 186.467Z" fill-rule="evenodd"  fill="#2E724E" >
</path>
<path d="M171.422 184.394L175.057 184.344L175.306 178.986C173.397 177.155 161.17 165.519 158.515 162.191C157.352 160.613 155.688 158.12 154.11 155.539C152.03 152.133 150.032 148.638 149.371 147.223C149.122 146.644 148.788 146.068 148.453 145.399C147.209 143.071 145.958 140.742 145.713 137.496L147.209 137.336C147.536 140.326 148.628 142.487 149.787 144.735C150.117 145.318 150.448 145.897 150.782 146.562C151.447 147.977 153.359 151.383 155.44 154.711C157.018 157.203 158.597 159.695 159.767 161.196C162.504 164.769 176.64 178.069 176.64 178.069L176.889 178.321L176.889 178.648L176.55 184.394L176.55 184.803L176.138 186.101L171.605 186.206L171.422 184.394L171.422 184.394Z" fill-rule="evenodd"  fill="#2E724E" >
</path>
<path d="M53.5131 105.663L61.7434 105.079L70.7243 104.492L82.364 103.832L98.6538 103.415L102.316 103.415L102.483 102L88.9305 102.339L77.2128 102.914L67.7267 103.583L61.9069 103.999L57.4242 104.411L53.5948 104.578L53.5131 105.663Z" fill-rule="evenodd"  fill="#2E724E" >
</path>
<path d="M198.499 105.993L190.44 105.324L181.545 104.826L169.986 104.162L153.86 103.668L150.283 103.668L150.198 102.338L163.587 102.665L175.142 103.162L184.535 103.917L190.273 104.333L194.681 104.745L198.499 104.916L198.499 105.993Z" fill-rule="evenodd"  fill="#2E724E" >
</path>
<path d="M126.5 48.0687C169.697 48.0687 204.931 83.3041 204.931 126.502C204.931 169.699 169.697 204.934 126.5 204.934C83.3034 204.934 48.0682 169.699 48.0682 126.502C48.0682 83.3044 83.3031 48.0687 126.5 48.0687ZM126.5 49.9077C84.3099 49.9077 49.9072 84.3149 49.9072 126.502C49.9072 168.688 84.3099 203.092 126.5 203.092C168.69 203.092 203.093 168.688 203.093 126.502C203.093 84.3149 168.69 49.9077 126.5 49.9077Z"   fill="#005B94" >
</path>
<path d="M126.5 4.08238C59.0746 4.08238 4.08604 59.0756 4.08604 126.502C4.08604 160.209 17.8331 190.811 40.0128 212.991C62.1848 235.163 92.7929 248.918 126.5 248.918C193.929 248.918 248.918 193.928 248.918 126.502C248.918 92.7947 235.163 62.1858 212.991 40.0097C190.811 17.8333 160.207 4.08238 126.5 4.08238ZM126.5 0C161.338 0 192.965 14.2062 215.88 37.121C238.794 60.0358 253 91.6633 253 126.502C253 196.18 196.176 253 126.5 253C91.6618 253 60.0349 238.794 37.1204 215.879C14.2097 192.968 0 161.341 0 126.502C0 56.8245 56.8236 0 126.5 0Z"   fill="#005B94" >
</path>
<path d="M233.854 134.874L226.237 133.937L215.056 140.476L215.752 134.796L222.68 131.126L216.845 125.94L217.537 120.279L226.794 129.474L234.402 130.407L233.854 134.874Z"   fill="#005B94" >
</path>
<path d="M217.316 147.853L231.393 150.594L230.538 154.984L216.464 152.239L215.29 158.277L211.721 157.581L214.929 141.12L218.501 141.819L217.316 147.853Z"   fill="#005B94" >
</path>
<rect x="209.55987548828125" y="163.64468383789062" width="4.507783575668666" height="17.974717235754515" transform="rotate(-68.99770462848296 209.55987548828125 163.64468383789062)"   fill="#005B94" >
</rect>
<path d="M210.383 186.839L212.54 182.777L212.692 182.854C213.586 183.329 214.476 183.302 215.363 182.761C216.253 182.221 217.097 181.198 217.894 179.698C218.508 178.539 218.811 177.556 218.807 176.747C218.803 175.934 218.492 175.366 217.87 175.036C217.345 174.756 216.852 174.756 216.389 175.036C215.923 175.316 215.297 176.047 214.5 177.233L212.719 179.9C211.409 181.847 210.133 183.115 208.893 183.698C207.661 184.289 206.386 184.227 205.068 183.527C203.513 182.703 202.615 181.326 202.374 179.406C202.14 177.482 202.63 175.374 203.855 173.069C205.173 170.592 206.662 168.905 208.333 167.995C209.993 167.093 211.626 167.062 213.232 167.914L213.36 167.984L211.261 171.93C210.417 171.599 209.632 171.654 208.889 172.093C208.154 172.532 207.463 173.357 206.821 174.562C206.23 175.681 205.927 176.63 205.919 177.416C205.911 178.197 206.195 178.749 206.774 179.052C207.237 179.301 207.669 179.301 208.077 179.052C208.485 178.803 209.146 178.014 210.056 176.684L211.938 173.901C213.236 171.98 214.519 170.748 215.782 170.2C217.042 169.64 218.364 169.737 219.736 170.464C221.497 171.405 222.465 172.835 222.617 174.756C222.781 176.684 222.124 179.021 220.65 181.785C219.25 184.409 217.695 186.186 215.969 187.092C214.254 187.994 212.501 187.963 210.717 187.014L210.382 186.839L210.383 186.839Z"   fill="#005B94" >
</path>
<path d="M202.185 206.508L188.423 194.945L195.518 186.485C197.069 184.646 198.5 183.55 199.833 183.189C201.163 182.815 202.453 183.169 203.725 184.235C204.537 184.911 205.074 185.708 205.358 186.633C205.638 187.57 205.607 188.503 205.284 189.444C206.054 189.048 206.722 188.885 207.31 188.955C207.885 189.029 208.67 189.441 209.658 190.191C209.755 190.265 209.891 190.366 210.058 190.494C211.827 191.855 213.118 192.523 213.93 192.508L210.684 196.384C210.459 196.345 210.229 196.283 210.012 196.182C209.794 196.073 209.58 195.933 209.378 195.766L208.449 194.981C207.177 193.919 206.213 193.387 205.548 193.387C204.887 193.383 204.157 193.857 203.36 194.806L203.29 194.887L200.012 198.783L205.089 203.048L202.185 206.508L202.185 206.508ZM197.193 196.423L200.467 192.519C201.33 191.485 201.808 190.661 201.917 190.027C202.01 189.397 201.781 188.845 201.194 188.363C200.642 187.889 200.086 187.76 199.534 187.963C198.982 188.165 198.212 188.865 197.217 190.043L194.064 193.798L197.194 196.423L197.193 196.423Z"   fill="#005B94" >
</path>
<path d="M184.877 220.102L174.567 205.383L187.633 196.223L189.721 199.209L180.344 205.776L182.089 208.26L190.44 202.409L192.532 205.41L184.181 211.254L186.405 214.426L195.778 207.856L197.948 210.951L184.877 220.102Z"   fill="#005B94" >
</path>
<path d="M169.417 227.289L155.203 213.795L159.768 211.859L169.569 221.707L169.367 207.784L173.896 205.86L173.635 225.497L169.417 227.289Z"   fill="#005B94" >
</path>
<rect x="150.19525146484375" y="215.34600830078125" width="4.509581361052692" height="17.975752397901292" transform="rotate(-13.994512943679734 150.19525146484375 215.34600830078125)"   fill="#005B94" >
</rect>
<path d="M130.987 236.425L128.795 218.587L134.288 217.911L144.746 229.396L143.199 216.818L147.495 216.29L149.688 234.131L144.26 234.8L133.697 223.202L135.256 235.9L130.987 236.425Z"   fill="#005B94" >
</path>
<path d="M112.589 217.453L111.913 227.091C111.788 228.856 112.072 230.158 112.764 231.013C113.448 231.861 114.611 232.347 116.248 232.46C117.126 232.526 117.892 232.448 118.557 232.254C119.222 232.052 119.766 231.725 120.198 231.262C120.54 230.913 120.793 230.489 120.963 230.007C121.131 229.529 121.255 228.774 121.321 227.748L121.997 218.11L126.453 218.421L125.749 228.537C125.559 231.255 124.641 233.257 122.985 234.548C121.336 235.85 119.004 236.394 115.991 236.181C112.985 235.975 110.758 235.112 109.3 233.595C107.849 232.091 107.216 229.968 107.406 227.254L108.11 217.138L112.589 217.453L112.589 217.453Z"   fill="#005B94" >
</path>
<path d="M75.0554 224.488L81.7892 207.82L86.9132 209.893L90.4939 225.013L95.2447 213.256L99.253 214.873L92.5192 231.544L87.4496 229.491L83.8339 214.228L79.0403 226.097L75.0554 224.488Z"   fill="#005B94" >
</path>
<path d="M54.7072 211.554L71.6383 201.123L75.2694 203.475L72.3496 223.016L68.147 220.282L68.8429 216.204L62.2103 211.888L58.7773 214.202L54.7067 211.554L54.7072 211.554ZM65.4804 209.688L69.4653 212.278L70.4644 206.302L65.4801 209.688L65.4804 209.688Z"   fill="#005B94" >
</path>
<path d="M39.7657 195.784L52.4825 183.079L56.3857 186.986L53.7771 202.301L62.7305 193.335L65.798 196.395L53.089 209.104L49.2244 205.244L51.8564 189.778L42.8096 198.829L39.7657 195.784Z"   fill="#005B94" >
</path>
<path d="M27.8856 174.005L43.8994 165.848L46.4071 170.77L39.1875 184.533L50.4814 178.775L52.4407 182.628L36.4272 190.789L33.9544 185.921L41.2363 172.03L29.8335 177.839L27.8856 174.005Z"   fill="#005B94" >
</path>
<path d="M38.8507 150.264L29.6096 153.087C27.9223 153.604 26.7987 154.335 26.2583 155.283C25.7101 156.232 25.6673 157.484 26.1534 159.062C26.41 159.902 26.7561 160.594 27.1759 161.138C27.6034 161.686 28.0972 162.075 28.6922 162.316C29.1472 162.507 29.6253 162.596 30.1345 162.584C30.6438 162.569 31.3942 162.406 32.3662 162.106L41.6073 159.28L42.9136 163.552L33.2292 166.515C30.6206 167.316 28.4162 167.172 26.6201 166.099C24.8162 165.026 23.4748 163.043 22.5846 160.151C21.7058 157.27 21.7138 154.882 22.608 152.981C23.4982 151.076 25.244 149.727 27.8489 148.934L37.537 145.972L38.851 150.264L38.8507 150.264Z"   fill="#005B94" >
</path>
<path d="M18.5502 134.732L26.1933 134.063L35.7768 125.347L36.2744 131.046L30.2559 136.069L37.048 139.934L37.5455 145.61L26.5859 138.542L18.9426 139.21L18.5502 134.732Z"   fill="#005B94" >
</path>
<path   fill-rule="evenodd"  fill="#005B94"  d="M49.1755 44.4216C48.4756 44.2119 48.2035 44.616 47.5583 44.822C46.6992 46.144 47.259 47.0419 47.0761 48.2588C46.6912 50.8014 45.136 53.2314 44.9417 55.7468C44.8328 55.8169 44.7202 55.8829 44.6113 55.9529C44.2187 55.7817 43.83 55.6145 43.4373 55.4436C42.2905 54.3045 43.4491 53.3597 43.6705 52.1194C43.9037 50.8091 43.4799 45.7279 41.6878 45.3353C41.5672 45.2847 41.4506 45.2381 41.33 45.1912C41.0345 45.479 40.7391 45.7628 40.4476 46.0506C40.1366 46.801 39.8254 47.5552 39.5105 48.3057C38.5503 51.4858 36.9757 54.6426 35.4905 58.0485C37.4032 59.592 39.5065 58.9273 41.26 58.4178C41.7498 58.721 42.2397 59.0282 42.7335 59.3314C44.1175 60.5637 42.6712 61.9166 42.2942 63.2852C42.2631 63.9539 42.2359 64.6227 42.2048 65.2914C42.2125 65.3497 42.2165 65.408 42.2202 65.4663C40.5484 65.1865 39.4405 65.4586 37.8738 65.4937C37.5355 65.9021 37.1934 66.3062 36.8513 66.7145C36.5247 67.251 36.6413 67.2278 36.6724 67.6865C37.3646 68.0754 38.2236 67.9626 38.8495 68.713C39.2384 69.5218 39.6271 70.3263 40.0158 71.1351C40.7351 72.1694 42.8967 72.9236 43.7597 73.1568C44.0241 73.0322 44.1718 72.9427 44.4362 72.9273C46.0574 71.0457 44.6616 69.4203 44.1561 67.7331C44.125 67.7059 44.0938 67.6785 44.0627 67.6514C44.4982 67.6202 45.0112 68.4678 45.6139 68.4755C45.8976 69.1483 45.5127 68.8253 45.3572 69.5407C45.4816 69.9645 45.6061 70.3883 45.7305 70.8121C47.0173 71.9514 47.344 71.4461 48.4559 71.1855C49.3072 70.2211 49.2024 68.3395 47.5772 68.044C47.3828 67.5036 47.55 66.5199 47.5694 65.9561C46.893 65.3846 46.3758 65.1513 45.7656 65.2448C45.4467 64.5798 45.7579 63.849 45.7579 63.1569C45.8396 63.0637 45.9173 62.9703 45.9951 62.8731C47.1848 63.5107 50.5244 66.652 51.0336 66.7843C51.1308 66.9203 51.2279 67.0604 51.3291 67.1964C51.2668 67.4607 51.2008 67.7291 51.1385 67.9934C50.0771 69.1949 49.8711 69.7078 49.8088 70.7187C50.8779 71.5081 51.7721 70.9247 52.7869 70.983C53.615 69.7233 52.8334 68.4404 53.0706 67.2158C53.3273 65.8941 54.3226 64.4089 54.1049 63.1257C54.1592 63.0634 54.2097 63.0014 54.2643 62.9391C54.8087 63.5301 55.0768 64.156 55.2906 64.7624C54.2798 67.7445 52.9189 70.6135 52.9189 73.4909C52.2736 74.1596 52.0481 73.9418 51.426 74.3188C51.4649 74.7775 51.5037 75.2402 51.5466 75.6991C52.087 76.2006 52.744 76.92 52.9189 77.4915C53.9103 78.4169 54.5478 78.2185 55.3371 77.2815C55.1351 75.0967 55.827 72.8338 55.6286 70.6486C55.7064 70.5555 55.7881 70.4583 55.8658 70.3649C57.2576 72.0368 56.2042 74.7349 56.4062 76.5816C56.7483 77.188 57.0904 77.7985 57.4327 78.4049C58.467 79.0465 59.0928 78.3972 60.0376 78.3543C60.7646 77.2075 61.4682 72.4683 61.4176 71.1892C61.888 71.0726 62.3661 71.5081 62.8405 71.5856C63.5286 71.7682 65.4259 70.8547 65.6437 69.7776C66.3047 67.5965 62.4284 66.1076 60.9667 66.0104C60.3951 66.1153 59.8236 66.2242 59.256 66.3331C58.5718 67.1067 58.5056 67.4022 58.4473 68.0555C58.665 68.2381 58.8865 68.421 59.1043 68.6076C60.2588 69.7739 58.8476 71.6867 58.6144 72.997C58.5095 73.1216 58.4047 73.2459 58.2995 73.3743C57.6891 72.3517 57.207 67.8263 57.3704 66.6714C57.5376 65.4817 58.2412 64.02 57.9963 62.8768C57.7631 61.7726 56.9855 61.4656 56.0407 61.3916C55.8736 61.7491 55.893 61.6325 55.9161 61.9243C55.8113 62.0526 55.7064 62.1769 55.6012 62.3013C55.1268 61.586 55.4806 59.7121 55.5663 58.911C54.6644 58.1529 54.4738 58.4367 53.7002 58.4638C52.4951 60.1316 52.289 62.9154 51.9818 64.7038C51.8652 64.7116 51.7524 64.7233 51.6358 64.731C50.2478 63.1409 49.3847 61.4379 47.8141 59.7584C48.4362 59.0119 49.0349 59.1363 49.4313 59.358C49.5053 59.7701 49.1552 60.2911 49.2836 60.676C49.5713 61.5314 51.6435 61.5082 52.1993 61.2047C52.6269 60.8898 52.6932 59.9722 52.7397 59.42C51.9038 58.6736 51.4063 58.4635 50.6713 58.6424C50.3369 58.1486 50.4575 57.7677 50.5507 57.2584C50.0958 56.8269 50.0803 56.6986 49.5516 56.7374C49.0655 55.8589 50.0026 54.6692 50.3292 53.7127C51.0057 51.7377 52.5451 44.8718 49.1747 44.4208M48.1998 57.2046C47.986 57.3952 47.7683 57.5896 47.5545 57.7839C47.4728 58.196 47.3951 58.6081 47.3133 59.0202C47.255 59.0242 47.2007 59.0319 47.1424 59.0356C45.871 56.6368 48.2698 53.5692 48.0989 51.0384C48.1767 50.9452 48.2584 50.8517 48.3361 50.7585C48.6745 51.2641 48.4567 56.5708 48.2001 57.2046">
</path>
<path   fill-rule="evenodd"  fill="#005B94"  d="M107.898 15.8218C107.805 15.4409 107.716 15.0599 107.626 14.6787C107.191 14.1346 103.816 14.4184 102.848 14.8965C101.398 15.6195 99.6909 17.7426 99.1545 19.0915C99.0108 19.1226 98.8707 19.1575 98.727 19.1926C98.3655 17.4899 99.0808 15.9073 99.8195 14.8576C99.3257 13.555 95.5274 12.3616 94.256 12.3927C93.5639 13.3101 92.8757 14.2278 92.1876 15.1454C92.9029 16.7666 95.8655 19.9585 95.0062 22.6334C95.3831 24.5462 93.0429 25.767 91.5343 26.4746C90.0259 27.1782 89.5164 26.2411 88.5291 27.1822C88.2801 27.536 88.2101 27.8081 88.1947 28.3176C89.5827 29.2933 90.5584 30.7356 92.1098 31.4706C92.3936 31.4046 92.6814 31.3386 92.9652 31.2686C93.6105 30.2306 94.5552 29.1458 95.0762 28.0532C95.1734 28.0338 95.2665 28.0107 95.3637 27.9872C95.422 28.0221 95.4806 28.0612 95.5386 28.0961C95.6318 32.1394 92.9455 33.3639 90.9082 35.9845C91.4486 37.4463 93.5364 37.0848 94.7376 37.4969C95.6746 37.1391 96.0399 36.5598 96.6466 35.9885C97.0004 36.2063 97.3541 36.4278 97.7079 36.6455C97.5173 37.2168 96.7554 37.6058 96.1916 37.909C96.5765 39.0598 97.7545 38.8732 98.707 38.9744C98.7536 39.8762 98.0966 40.4167 97.6845 41.0308C97.7622 41.1591 97.844 41.2912 97.9257 41.4235C98.4467 42.1585 99.3369 42.3411 100.266 42.3837C100.309 43.1342 100.184 43.764 100.741 44.3859C101.02 45.0778 101.168 45.0235 101.58 45.393C102.902 45.0469 104.045 44.4248 104.811 43.7289C104.508 42.3254 104.127 40.677 103.33 40.0003C103.322 39.7514 103.31 39.4988 103.303 39.2498C105.542 39.3239 105.639 41.6447 106.813 43.2542C106.922 43.2816 107.027 43.3048 107.132 43.332C112.746 41.3686 105.826 26.1088 108.671 21.6769C108.388 20.6738 108.193 20.8256 107.622 20.4172C104.041 21.1288 99.8541 24.6782 98.1552 27.0265C98.0034 27.0108 97.848 26.999 97.6925 26.9836C97.6459 26.9953 97.5993 27.007 97.5527 27.0185C98.136 21.7698 104.267 19.2506 107.898 15.8216M98.8824 31.3849C99.3685 31.6067 99.4229 32.252 99.3645 32.7807C99.4229 32.8195 99.4812 32.8547 99.5395 32.8895C100.558 32.6175 101.417 32.0848 101.981 31.7115C102.79 31.4432 102.732 31.284 103.132 30.8368C103.151 30.3041 103.276 29.9114 102.972 29.515C102.568 28.8463 101.752 28.792 100.877 28.9515C100.842 28.8074 100.807 28.6677 100.776 28.5236C101.662 27.7695 103.077 26.883 103.625 25.8879C104.275 25.8373 104.092 25.7439 104.442 26.1482C104.597 27.019 104.753 27.8861 104.905 28.7568C104.846 29.7794 104.784 30.7982 104.722 31.8204C104.765 33.9547 105.954 35.992 105.534 37.8193C105.418 38.2702 105.566 38.0487 105.204 38.352C105.044 38.4646 104.908 38.4297 104.597 38.3402C104.446 38.3285 104.29 38.3131 104.135 38.3014C103.929 37.2554 103.676 35.3776 103.042 34.9346C103.031 34.8877 103.019 34.8374 103.007 34.7906C102.556 35.1018 102.269 35.4556 102.067 35.918C101.969 35.9414 101.876 35.9646 101.779 35.988C101.837 34.7906 102.417 34.3319 101.46 33.3442C100.632 33.562 100.43 33.7252 100.162 34.2539C100.01 34.2384 99.8546 34.2267 99.6989 34.2113C99.2711 33.7449 99.1156 33.1267 98.6144 32.8078C98.4355 31.8979 98.5638 31.9176 98.8827 31.3846">
</path>
<path   fill-rule="evenodd"  fill="#005B94"  d="M90.1338 37.8259C90.2775 37.7911 90.4213 37.7599 90.5613 37.725C92.859 39.42 96.0354 41.644 97.019 45.2634C96.6378 46.0642 96.6652 47.0518 96.0937 47.7437C94.449 49.6136 91.751 48.0429 90.5419 47.2421C89.4417 43.7819 89.2822 40.4423 90.1338 37.8257">
</path>
<path   fill-rule="evenodd"  fill="#005B94"  d="M170.46 17.7426C171.195 18.353 171.397 19.0177 171.848 19.6399C172.385 20.3746 173.64 21.0782 173.745 21.9493C174.068 24.6787 171.09 24.7836 170.118 25.8644C169.208 27.8978 168.298 29.9311 167.385 31.9684C169.286 32.4154 170.767 32.8587 171.77 30.5298C171.65 30.1683 171.661 30.32 171.758 29.8185L172.478 30.1606C173.516 32.0733 175.74 32.6334 174.36 35.4636C172.847 35.8328 171.319 36.7504 169.608 36.5521C168.108 36.3772 166.813 34.9969 165.756 36.1246C166.436 38.5894 166.72 45.9995 169.247 47.3058C169.958 47.2009 172.322 47.889 172.68 48.2351C173.041 48.6472 172.991 48.5423 172.979 49.0865C169.534 49.5452 168.193 53.713 163.777 51.7537C162.408 48.7249 162.548 45.5488 162.809 41.9485C162.902 40.6422 164.391 37.9713 163.493 36.8087C158.474 44.2462 152.432 49.9029 144.727 41.7968C144.7 41.6061 144.672 41.4158 144.645 41.2292L144.925 41.0074C145.971 40.5019 148.334 41.5867 149.485 41.4195C151.822 41.0812 157.875 38.7835 159.36 36.6024C159.216 36.5364 159.072 36.4664 158.929 36.4004C157.455 36.9679 155.838 37.0768 153.797 36.07C153.346 35.0863 151.6 31.8984 151.849 30.9108C152.724 30.7942 153.762 30.4404 154.687 30.5024C157.198 30.6656 161.409 32.9944 163.178 31.5484C163.656 30.5413 164.138 29.5384 164.616 28.5314C164.585 27.3728 165.498 26.3348 166.051 25.5144C166.98 23.0767 167.905 20.639 168.83 18.2012C169.382 18.0575 169.88 17.8823 170.459 17.7426">
</path>
<path   fill-rule="evenodd"  fill="#005B94"  d="M217.272 75.0356C217.505 74.8839 217.739 74.7284 217.972 74.5729C218.116 73.5272 218.263 72.4813 218.408 71.4353C217.98 70.7355 217.537 70.0201 217.016 69.8415C216.899 69.5809 216.786 69.3205 216.67 69.0639C216.643 69.025 216.619 68.9862 216.592 68.9473C217.766 68.7296 222.155 70.0516 223.45 70.4402C224.663 69.4529 224.27 68.0571 224.779 66.8751C224.115 66.0704 222.742 65.351 221.837 64.9661C221.35 64.2313 221.347 64.0176 221.339 63.4537C221.417 63.4032 221.494 63.3489 221.572 63.2983C221.634 63.3137 221.7 63.3254 221.767 63.3371C222.898 65.1644 223.372 65.3199 224.745 65.5571C226.525 64.2936 226.374 62.5907 226.968 61.0666C226.801 60.8954 226.634 60.7283 226.463 60.5611C225.141 59.7057 224.056 60.8877 222.548 60.9772C220.997 60.4911 219.449 60.0092 217.898 59.5271C217.743 59.2939 217.587 59.0607 217.436 58.8272C216.957 58.1936 216.483 57.5598 216.005 56.9222C215.079 57.6609 215.215 58.8818 215.223 59.7915C214.628 59.912 214.077 59.7683 213.556 59.5543C213.478 59.6048 213.4 59.6554 213.322 59.7097C213.948 60.3707 214.652 60.7828 215.375 61.0315C215.686 61.6651 215.674 61.7508 215.332 62.2329C215.317 62.4738 215.118 62.3066 214.788 62.4272C214.248 61.6107 213.707 60.7943 213.167 59.9778C213.101 59.9661 213.039 59.9544 212.973 59.9389C211.771 61.5524 211.033 61.8945 209.015 61.0549C208.949 61.0395 208.887 61.0275 208.821 61.012C208.887 60.8603 208.949 60.7051 209.015 60.5494C209.983 59.9118 210.212 60.2656 210.916 60.6311C211.122 60.6079 211.328 60.5805 211.534 60.5573C214.547 58.6678 214.159 57.9447 214.263 55.5616C213.668 54.7294 213.408 54.7994 212.755 54.5508C212.351 55.375 211.95 56.2032 211.546 57.0274C211.313 57.1828 211.08 57.3386 210.846 57.49L210.772 55.8611C210.554 55.6162 210.337 55.3713 210.115 55.1223C209.252 55.7445 209.256 56.3898 208.638 56.9419C206.947 58.4503 205.776 57.9333 205.485 60.5382C205.384 60.5536 205.279 60.5653 205.178 60.577C204.805 59.7451 204.96 58.2171 204.33 57.7818C204.163 57.6146 203.996 57.4474 203.829 57.2763L202.779 58.4777C200.648 59.5314 199.544 58.5514 198.813 61.102C199.226 61.7242 199.638 62.346 200.05 62.9682C200.575 63.5397 200.777 63.4231 201.329 63.6289C202.118 63.1353 202.993 62.5987 203.273 62.0077C203.545 61.8251 203.817 61.6462 204.089 61.4673C204.062 62.1008 204.035 62.7347 204.004 63.3646C204.61 63.8973 205.629 63.7961 206.329 63.839C206.461 64.0333 206.589 64.2279 206.717 64.4222C205.905 64.9198 205.388 64.9238 204.738 64.7254C203.421 65.6274 203.891 66.8871 203.565 68.0185C203.086 68.2245 202.608 68.4306 202.13 68.6366C200.688 68.8001 199.405 66.7316 198.102 66.1018C196.672 63.8661 197.352 63.5163 195.4 62.5289C195.295 62.5406 195.19 62.5523 195.089 62.5638C193.829 63.5783 194.086 64.9238 193.76 66.1289C194.848 68.2711 198.016 69.1419 200.108 70.1413C200.081 70.2696 200.058 70.4016 200.031 70.5299C198.759 71.3153 197.492 72.1006 196.224 72.8822C196.108 72.7928 195.991 72.7033 195.875 72.6101C195.941 71.615 196.011 70.6197 196.077 69.6243C195.719 69.1656 195.641 69.1539 195.303 68.9635C195.272 68.9947 192.726 75.7866 192.609 76.2881C192.469 76.8714 192.422 77.7616 193.029 78.1892C195.26 79.5112 199.004 72.7968 202.157 72.4741C204.07 71.1832 204.381 72.9913 205.8 73.9204C205.94 74.554 205.741 74.3054 205.446 74.6552C206.301 75.7554 207.184 75.8489 208.156 76.2141C208.84 75.868 209.454 75.6348 209.711 75.0167C209.761 74.9273 209.816 74.8341 209.866 74.7446C208.898 73.0534 207.934 72.058 206.503 71.4399C206.426 71.3233 206.348 71.2067 206.27 71.0901C206.846 70.7634 207.079 70.7168 207.553 70.744C208.238 70.153 208.136 69.8341 208.37 69.1965C208.498 69.2199 208.63 69.2471 208.758 69.2742C211.359 72.7499 214.12 74.3828 217.272 75.0361M219.982 62.6761C220.203 63.2983 219.799 64.8378 220.013 66.0081C219.527 66.1907 219.391 66.1481 218.963 66.1987C218.874 66.1481 218.784 66.0975 218.695 66.0432C218.477 65.3979 218.711 64.632 218.893 64.0682C218.524 63.5549 218.4 63.4889 218.042 63.2906C217.117 63.8738 216.012 64.5543 215.631 65.2227C216.234 65.9809 216.374 65.7088 216.988 66.0003C217.078 66.0509 217.167 66.1052 217.26 66.1558C217.245 66.2218 217.233 66.2841 217.218 66.3501C216.638 66.5951 216.362 66.5562 215.861 66.5796C215.254 66.0546 214.869 65.5105 214.434 64.6746C214.881 64.4451 214.939 64.422 215.285 64.4451C216.055 63.9553 216.292 63.6792 216.183 63.0105C216.622 63.0028 217.062 62.9873 217.501 62.9756C217.668 62.4741 217.839 61.9685 218.007 61.4673C218.667 61.8676 219.325 62.272 219.982 62.6764M207.459 62.2523C207.382 62.1357 207.304 62.0191 207.226 61.9025C207.37 61.8637 207.514 61.8248 207.654 61.7859C209.077 61.5527 210.519 63.2362 211.992 63.2711C212.587 64.3091 212.929 65.2267 213.886 65.3705C213.921 65.7088 213.863 65.7631 213.847 66.0704C211.149 67.8936 209.535 63.4889 207.459 62.2523M207.366 67.6796C206.464 66.8905 206.771 65.9769 206.83 65.3508C208 65.0087 208.859 66.7854 209.808 67.5707C211.029 68.5738 213.089 69.8178 214.532 70.1445C214.57 70.2845 214.609 70.4283 214.648 70.5683C214.687 70.7123 214.726 70.8561 214.765 70.9961C214.687 71.0467 214.609 71.101 214.532 71.1516C213.05 70.7435 208.533 68.6984 207.367 67.6796">
</path>
</g>
<defs>
<clipPath id="clip-path-s7YUyohOF0RmLPXs1hlsd">
<path d="M0 253L253 253L253 0L0 0L0 253Z" fill="white"/>
</clipPath>
</defs>
</svg>
